<?xml version="1.0" encoding="UTF-8"?>
<svg width="456" height="456" viewBox="0 0 456 456" xmlns="http://www.w3.org/2000/svg">
    <!-- Water drops (background) -->
    <g fill="#64B5F6" opacity="0.6">
        <path d="M80 340 Q75 320 85 300 Q95 320 90 340 Z"/>
        <path d="M370 320 Q365 300 375 280 Q385 300 380 320 Z"/>
        <path d="M120 370 Q115 350 125 335 Q135 350 130 370 Z"/>
    </g>
    <!-- Car body -->
    <g fill="white">
        <rect x="80" y="180" width="280" height="80" rx="30"/>
        <rect x="120" y="130" width="180" height="70" rx="35"/>
        <!-- Windows -->
        <rect x="135" y="140" width="65" height="45" rx="10" fill="#1565C0"/>
        <rect x="210" y="140" width="65" height="45" rx="10" fill="#1565C0"/>
    </g>
    <!-- Wheels -->
    <circle cx="135" cy="265" r="28" fill="white"/>
    <circle cx="135" cy="265" r="14" fill="#1565C0"/>
    <circle cx="310" cy="265" r="28" fill="white"/>
    <circle cx="310" cy="265" r="14" fill="#1565C0"/>
    <!-- Headlight -->
    <rect x="358" y="200" width="12" height="20" rx="4" fill="#FFD54F"/>
    <!-- Taillight -->
    <rect x="72" y="200" width="10" height="18" rx="4" fill="#EF5350"/>
    <!-- Bumper -->
    <rect x="65" y="235" width="330" height="12" rx="6" fill="#64B5F6" opacity="0.8"/>
</svg>
