<?xml version="1.0" encoding="UTF-8" standalone="no"?>
<svg width="456" height="456" viewBox="0 0 456 456" version="1.1" xmlns="http://www.w3.org/2000/svg">
  <rect x="0" y="0" width="456" height="456" fill="#1565C0" />
  <path d="M 105.50037 281.60863 C 102.79744 281.60863 100.49946 280.70821 98.607243 278.90654 C 96.715029 277.05876 95.877342 274.86473 95.877342 272.32445 C 95.877342 269.73723 96.715029 267.52056 98.607243 265.67278 C 100.49946 263.825 102.79744 262.90111 105.50037 262.90111 C 108.24856 262.90111 110.56835 263.825 112.46056 265.67278 C 114.39805 267.52056 115.36637 269.73723 115.36637 272.32445 C 115.36637 274.86473 114.39805 277.05876 112.46056 278.90654 C 110.56835 280.70821 108.24856 281.60863 105.50037 281.60863 Z" fill="#ffffff" />
  <path d="M 213.56111 280.08446 L 195.99044 280.08446 L 149.69953 207.0544 C 148.52832 205.20662 147.55916 203.28925 146.79372 201.30314 L 146.38794 201.30314 C 146.74845 203.42842 146.9287 207.97829 146.9287 214.95274 L 146.9287 280.08446 L 131.38521 280.08446 L 131.38521 180.72437 L 150.10446 180.72437 L 194.84186 252.02235 C 196.73408 254.9793 197.95056 257.01152 198.49131 258.11986 L 198.76127 258.11986 C 198.31106 255.48736 198.08554 251.02971 198.08554 244.74693 L 198.08554 180.72437 L 213.56111 180.72437 L 213.56111 280.08446 Z" fill="#ffffff" />
  <path d="M 289.25134 280.08446 L 234.85082 280.08446 L 234.85082 180.72437 L 287.08917 180.72437 L 287.08917 194.72106 L 250.93506 194.72106 L 250.93506 222.85191 L 284.25127 222.85191 L 284.25127 236.77901 L 250.93506 236.77901 L 250.93506 266.15736 L 289.25134 266.15736 L 289.25134 280.08446 Z" fill="#ffffff" />
  <path d="M 366.56466 194.72106 L 338.7222 194.72106 L 338.7222 280.08446 L 322.63797 280.08446 L 322.63797 194.72106 L 294.86342 194.72106 L 294.86342 180.72437 L 366.56466 180.72437 L 366.56466 194.72106 Z" fill="#ffffff" />
</svg>
